<?xml version="1.0" encoding="utf-8"?>
<!-- Generator: Adobe Illustrator 26.0.1, SVG Export Plug-In . SVG Version: 6.00 Build 0)  -->
<svg version="1.1" id="Layer_1" xmlns="http://www.w3.org/2000/svg" xmlns:xlink="http://www.w3.org/1999/xlink" x="0px" y="0px"
	 viewBox="0 0 590.68 591.82" style="enable-background:new 0 0 590.68 591.82;" xml:space="preserve">
<style type="text/css">
	.st0{fill:#183153;}
</style>
<g>
	<path class="st0" d="M1.27,224.13c0-23.03-0.02-46.06,0-69.09c0.04-46.96,27.91-77.7,75.01-79.46c41.38-1.55,82.86-0.9,124.28-0.17
		c26.42,0.47,38.57,14.18,38.87,40.85c0.02,2.05,0,4.09,0.01,6.14c0.01,24.44,0.01,24.44,24.68,27.26
		c18,2.06,30.84,17.25,30.62,36.21c-0.24,20.33-13.89,34.96-33.97,36.43c-21.33,1.56-21.33,1.56-21.33,22.3
		c0,18.94-0.32,37.88,0.14,56.8c0.21,8.82-1.76,13.09-11.85,12.61c-16.84-0.8-33.77-0.63-50.62-0.04
		c-8.32,0.29-10.81-2.88-10.5-10.64c0.39-9.71,0.63-19.49-0.13-29.16c-1.52-19.44-14.76-32.29-33.51-33.45
		c-20.57-1.27-34.36,8.91-39.63,28.28c-3.04,11.17-1.9,22.39-1.72,33.56c0.13,8.18-1.42,11.75-10.77,11.46
		c-23-0.72-46.05-0.72-69.04,0c-9.49,0.3-10.81-3.59-10.69-11.61C1.51,276.34,1.27,250.23,1.27,224.13z"/>
	<path class="st0" d="M589.57,138.68c0,20.99,0.19,41.98-0.05,62.96c-0.29,25.37-13.82,38.77-38.89,38.99
		c-7.16,0.06-14.33-0.03-21.49,0.02c-9.2,0.07-19.73-2.55-27.28,1.04c-9.26,4.41-2.33,16.38-4.6,24.91
		c-5.08,19.1-19.27,30.35-39.33,29c-18.64-1.25-31.28-14.45-32.71-34.15c-1.51-20.82-1.51-20.82-22.99-20.82
		c-13.3,0-26.62-0.35-39.9,0.14c-7.63,0.28-11.31-1.67-11.1-10.11c0.43-17.39,0.51-34.82-0.03-52.2
		c-0.29-9.24,3.77-11.28,11.98-10.78c9.17,0.56,18.45,0.57,27.61-0.08c20.62-1.46,34.77-17.45,34.21-37.95
		c-0.55-20.36-14.11-34.63-34.37-36.15c-2.04-0.15-4.09-0.18-6.13-0.22c-33.16-0.67-33.16-0.67-33.16-34.51
		c0-50.37,6.98-57.28,57.87-57.28c33.77,0,67.54-0.12,101.3,0.03c47.67,0.2,78.81,31.3,79.03,78.8
		C589.65,99.77,589.57,119.22,589.57,138.68z"/>
	<path class="st0" d="M119.79,351.9c35.3,0,70.6,0.31,105.89-0.18c10.69-0.15,14.5,3.4,13.97,14.17
		c-0.77,15.83-0.66,31.74-0.03,47.58c0.38,9.59-3.26,12.74-12.48,12.08c-8.65-0.62-17.39-0.33-26.08-0.09
		c-20.16,0.56-34.2,14.65-35.2,35.07c-1,20.52,13.09,37.3,33.22,38.71c10.18,0.71,20.47,0.61,30.68,0.13
		c7.56-0.35,9.83,2.81,9.76,9.88c-0.22,23.54-0.25,47.09,0.02,70.63c0.09,7.58-2,10.9-10.41,10.85
		c-52.69-0.33-105.39,0.48-158.06-0.39c-38.09-0.63-69.12-32.97-69.62-72.02c-0.67-51.68,0.1-103.38-0.41-155.07
		c-0.1-10.37,4.35-11.57,12.86-11.49C49.19,352.09,84.49,351.9,119.79,351.9z"/>
	<path class="st0" d="M277.86,471.47c0-35.83,0.29-71.66-0.2-107.48c-0.13-9.33,2.53-12.66,12.06-12.27
		c16.34,0.67,32.75,0.57,49.1,0.03c8.88-0.29,11.8,3,11.17,11.63c-0.64,8.65-0.48,17.41-0.04,26.09
		c1.06,21.12,15.53,35.65,36.03,36.62c20.19,0.96,36.18-12.58,38.51-33.68c1.12-10.12,0.66-20.44,0.57-30.67
		c-0.05-6.1,1.82-9.91,8.6-9.8c16.86,0.28,33.84-0.58,50.57,1.05c20.04,1.95,31.39,14.41,31.69,34.83
		c0.64,43.5,1.22,87.04-0.09,130.5c-1.29,42.75-33.27,72.14-75.85,72.21c-50.13,0.09-100.27-0.26-150.4,0.26
		c-9.52,0.1-12.08-2.4-11.94-11.86C278.18,543.13,277.86,507.3,277.86,471.47z"/>
</g>
</svg>
